<?xml version="1.0" encoding="utf-8"?>
<!-- Generator: Adobe Illustrator 16.0.4, SVG Export Plug-In . SVG Version: 6.00 Build 0)  -->
<!DOCTYPE svg PUBLIC "-//W3C//DTD SVG 1.1 Tiny//EN" "http://www.w3.org/Graphics/SVG/1.1/DTD/svg11-tiny.dtd">
<svg version="1.1" baseProfile="tiny" id="Layer_1" xmlns="http://www.w3.org/2000/svg" xmlns:xlink="http://www.w3.org/1999/xlink"
	 x="0px" y="0px" width="185.385px" height="38.205px" viewBox="0 0 185.385 38.205" xml:space="preserve">
<g>
	<path fill="#414042" d="M17.89,1.048L1.192,36.903h6.454l2.766-6.045h20.541l2.766,6.045h6.505L23.525,1.048H17.89z M13.179,25.019
		l7.529-16.186l7.529,16.186H13.179z"/>
	<path fill="#414042" d="M58.715,23.688c0,4.814-1.843,8.502-6.299,8.502c-3.637,0-4.867-2.357-4.867-5.941V11.292h-5.532V26.25
		c0,6.453,2.562,11.268,9.477,11.268c3.176,0,5.531-1.536,7.221-3.483v2.869h5.431v-25.61h-5.431V23.688z"/>
	<polygon fill="#414042" points="100.718,11.293 97.933,11.293 97.933,16.253 100.718,16.253 100.718,36.903 106.252,36.903 
		106.252,11.292 100.718,11.292 	"/>
	<path fill="#414042" d="M85.014,1.048v4.961h2.889v7.588c-1.587-1.588-4.302-2.919-7.478-2.919c-7.53,0-12.704,5.224-12.704,13.42
		c0,8.195,5.173,13.419,12.704,13.419c3.329,0,6.043-1.742,7.478-3.432v2.817h5.43V6.009V1.048h-5.43H85.014z M80.834,32.19
		c-4.507,0-7.376-3.329-7.376-8.093s2.869-8.093,7.376-8.093c4.662,0,7.376,3.073,7.376,7.99S85.496,32.19,80.834,32.19z"/>
	<path fill="#414042" d="M124.178,16.004c2.869,0,5.122,1.486,6.3,3.073l3.483-4.251c-2.356-2.51-5.583-4.149-9.681-4.149
		c-7.479,0-13.215,5.48-13.215,13.42c0,7.939,5.735,13.419,13.215,13.419c4.711,0,7.887-2.151,9.681-4.046l-3.228-4.405
		c-1.484,1.69-3.739,3.125-6.556,3.125c-3.996,0-7.376-2.919-7.376-8.093C116.802,18.925,120.183,16.004,124.178,16.004z"/>
	<path fill="#414042" d="M153.98,23.688c0,4.814-1.843,8.502-6.3,8.502c-3.636,0-4.866-2.357-4.866-5.941V11.292h-5.532V26.25
		c0,6.453,2.562,11.268,9.477,11.268c3.175,0,5.532-1.536,7.222-3.483v2.869h5.43v-25.61h-5.43V23.688z"/>
	<path fill="#414042" d="M169.902,18.668c0-1.434,1.587-2.664,4.353-2.664c2.613,0,4.61,1.383,5.789,3.228l4.149-3.125
		c-1.793-3.023-5.276-5.43-9.938-5.43c-6.249,0-9.885,3.688-9.885,7.734c0,9.937,14.239,6.454,14.239,11.167
		c0,1.486-1.69,2.612-4.559,2.612c-2.51,0-5.122-1.434-6.455-3.842l-4.353,3.176c1.793,3.432,5.89,5.992,10.808,5.992
		c5.993,0,10.039-3.278,10.039-7.939C184.089,19.692,169.902,23.022,169.902,18.668z"/>
	<circle fill="#414042" cx="103.486" cy="4.683" r="3.995"/>
</g>
</svg>
